<?xml version="1.0" encoding="utf-8"?>
<!-- Generator: Adobe Illustrator 19.2.1, SVG Export Plug-In . SVG Version: 6.00 Build 0)  -->
<svg version="1.1" id="Capa_1" xmlns="http://www.w3.org/2000/svg" xmlns:xlink="http://www.w3.org/1999/xlink" x="0px" y="0px"
	 viewBox="0 0 1400 980" enable-background="new 0 0 1400 980" xml:space="preserve">
<g>
	<path fill="#151D38" d="M585,886.7c-0.4-0.6-1.2-0.5-1.7-0.7c-4.2-1.5-6.8-5-7-9.4c0-0.8,0-1.6,0-2.4c0-33.8,0-67.5,0-101.3
		c0-3.2,0.5-3.1-3.2-3.4c-15.9-1.5-31.1-5.8-45.6-12.5c-4.5-2.1-8.9-4.5-13.1-7c-0.4-0.2-0.8-0.5-1.2-0.7c-0.5-0.3-0.9-0.2-0.9,0.5
		c0,0.6,0,1.3,0,1.9c0,15,0,30.1,0,45.1c0,5.3-1.6,9.9-5.7,13.5c-5.5,4.8-11.9,5.9-18.6,2.9c-6.6-2.9-10.2-8.2-10.2-15.5
		c-0.1-25.6,0-51.2,0-76.8c0-90.8,0-181.6,0-272.4c0-1-0.1-2.1,0.1-3.1c0.6-3.5,2.7-5.8,6.1-6.7c3.4-1,6.4-0.1,8.7,2.5
		c4,4.5,7.9,9.1,11.8,13.6c4.2,4.9,8.5,9.8,12.7,14.7c0.3,0.3,0.5,0.6,0.8,0.9c0.4,0.4,0.7,1.2,1.5,0.9c0.9-0.3,0.8-1.1,0.8-1.8
		c0-0.5,0-1,0-1.4c0-27.8,0-55.7,0-83.5c0-1.8-0.3-3.1-2-4.1c-2.8-1.7-4.7-4.3-5.8-7.4c-0.4-1.2-1.1-1.6-2.2-1.6
		c-3.4-0.2-6.7-0.4-10-0.7c-12.9-0.9-25.8-1.6-38.8-2.6c-14.7-1.1-29.5-2.4-44.2-3.6c-11.4-1-22.8-2-34.2-3.1
		c-13.2-1.3-26.4-2.7-39.6-4.1c-2.1-0.2-4.1-0.4-6.2-0.6c-0.5,0-1-0.1-1.4-0.2c-0.7-0.2-1-0.8-1-1.5c0.1-0.7,0.5-1.2,1.2-1.2
		c0.6,0,1.1,0,1.7,0.1c8.5,0.9,17,1.8,25.5,2.7c7.4,0.8,14.8,1.5,22.2,2.2c9.5,0.9,19.1,1.8,28.7,2.7c8.4,0.7,16.7,1.4,25.1,2.1
		c9.6,0.8,19.3,1.5,28.9,2.2c8,0.6,15.9,1.1,23.9,1.6c5.7,0.4,11.3,0.7,17,1c2.3,0.1,2.1,0.4,2.1-2.1c0-0.8,0.1-1.6,0-2.4
		c-0.6-3.4,0.8-6.2,2.3-9c2.1-3.9,5.4-6,9.9-6.1c4.9-0.1,9.8-0.2,14.6,0c10.4,0.3,17.1,8.9,16.8,17.2c0,1,0,1.9,0,2.9
		c0,2.1,0,2.2,2.3,2.3c5,0.3,10.1,0.5,15.1,0.7c11.3,0.5,22.7,0.9,34,1.3c8.7,0.3,17.4,0.5,26.1,0.7c10.9,0.3,21.9,0.6,32.8,0.8
		c6,0.1,12,0.1,18,0.2c20.9,0.3,41.8,0.3,62.6,0.1c10.1-0.1,20.2-0.1,30.2-0.3c16-0.3,32-0.7,48-1.1c9.3-0.2,18.5-0.6,27.8-0.9
		c5.2-0.2,10.4-0.4,15.6-0.7c1.9-0.1,2.1-0.1,1.9-1.9c-0.7-8.7,6.9-16.2,15.8-17.1c5.5-0.5,11-0.4,16.5-0.2
		c6.8,0.3,10.4,4.5,10.5,11.2c0,1.3,0,2.6,0,3.8c0,1.9,0.1,1.9,1.9,1.8c5.5-0.3,11-0.6,16.5-0.9c6.6-0.4,13.2-0.8,19.9-1.3
		c12.2-0.8,24.4-1.7,36.6-2.6c0.8-0.1,2.1,0.1,2.2-0.5c0.2-0.7-1-1.1-1.5-1.6c-6.3-5.4-8.7-12.3-8.2-20.3c0.4-6.3,2.6-11.9,7.4-16.2
		c4.5-4.1,9.8-5.9,15.9-4.6c3.8,0.8,6.5,3,7.9,6.7c0.4,1.1,1,1.7,2.1,2c1.1,0.3,2.1,0.7,3.2,1c0.8,0.3,1.5,0.7,1.5,1.6
		c0,1-0.8,1.3-1.6,1.6c-0.4,0.1-0.8,0.3-1.1,0.4c-2.4,0.6-4.7,1.3-5.8,3.9c-0.4,0.9-1.3,1.4-2.1,2c-0.2,0.1-0.3,0.4-0.3,0.6
		c0,0.3,0.3,0.3,0.6,0.3c1,0,2.1,0,3.1,0c5.1,0,10.2,0,15.4,0c0.6,0,1.1,0,1.7,0c1.3,0.2,1.8,0.9,1.4,2.2c-0.2,0.7-0.6,1.3-1,1.9
		c-1.5,2.5-3.5,4.5-6.1,6c-1,0.6-1.7,1.3-2.2,2.4c-1,2.5-2.6,4.8-4.5,6.8c-0.3,0.3-0.9,0.6-0.7,1.1c0.2,0.5,0.8,0.3,1.3,0.2
		c4.3-0.4,8.6-0.7,12.9-1.1c8-0.7,15.9-1.4,23.9-2.2c10.5-1,21-2.1,31.5-3.1c7-0.7,14-1.5,21-2.2c0.4,0,0.8-0.1,1.2-0.1
		c0.9,0,1.6,0.3,1.7,1.3c0,0.9-0.6,1.4-1.5,1.6c-1.6,0.2-3.2,0.4-4.8,0.5c-12.2,1.3-24.3,2.6-36.5,3.8c-11.1,1.1-22.3,2.1-33.4,3.1
		c-7.6,0.7-15.1,1.3-22.7,2c-1.9,0.2-3.8,0.7-5.6,1c-1,0.2-2.1,0.3-3.1,0.2c-5.7-0.6-11.3,0.4-17,0.8c-7.9,0.5-15.8,1.2-23.7,1.7
		c-11.9,0.8-23.8,1.5-35.7,2.3c-3.4,0.2-6.7,0.4-10.1,0.5c-1.1,0-1.7,0.4-1.9,1.6c-0.9,4.1-3,7.4-6.4,9.8c-1,0.7-1.2,1.5-1.2,2.6
		c0,4.8,0,9.6,0,14.4c0,7.5,0,15,0,22.6c0,0.6,0,1.3,0,1.9c0,0.2,0.1,0.5,0.3,0.6c0.2,0.2,0.4-0.1,0.6-0.2c0.4-0.4,0.8-0.8,1.1-1.2
		c3.8-4.4,7.5-8.7,11.3-13c2.9-3.3,7.3-4,10.9-1.9c2.6,1.5,4,3.8,4.2,6.9c0,0.6,0,1.1,0,1.7c0,101.1,0,202.2,0,303.4
		c0,7.7-4.9,14.8-12.6,17c-11,3.1-21.9-5-21.9-16.4c0-15.2,0-30.4,0-45.6c0-0.6,0-1.1,0-1.7c-0.1-1.8-0.1-1.9-1.7-0.9
		c-8.8,5.4-18.1,9.8-27.9,13.2c-10.6,3.6-21.6,5.9-32.7,7c-2.5,0.2-2.5-0.1-2.5,2.8c0,29.4,0,58.9,0,88.3c0,5,0,10.1,0,15.1
		c-0.1,4.8-2.8,8.6-7.1,10c-6.8,2.2-13.7-2.6-13.8-9.7c-0.1-8.7,0-17.4,0-26.2c0-25.5,0-51,0-76.6c0-0.6,0-1.1,0-1.7
		c0-1.9,0-2-1.9-2.1c-9.6-0.9-19-2.7-28.2-5.5c-11-3.3-21.4-8-31.3-13.8c-0.4-0.2-0.8-0.5-1.2-0.7c-1.3-0.7-1.4-0.6-1.4,0.9
		c0,0.6,0,1.3,0,1.9c0,14.6,0,29.3,0,43.9c0,5.2-1.4,9.8-5.2,13.4c-4.9,4.6-10.6,6.1-17.1,4.2c-6.4-1.9-10.4-6.4-11.9-12.9
		c-0.2-1-0.2-2.1-0.2-3.1c0-101.7,0-203.4-0.1-305c0-4.3,2.6-7.3,5.6-8.4c3.5-1.3,7-0.3,9.7,2.8c8.1,9.3,16.1,18.6,24.2,27.9
		c0.3,0.4,0.7,0.7,0.9,1.1c0.6,0.8,1.2,0.8,2,0.3c2.3-1.2,4.5-2.4,6.8-3.5c13.4-6.3,27.4-10.5,42.2-12.3c21-2.6,41.5-0.7,61.6,5.8
		c0.3,0.1,0.6,0.2,0.9,0.3c1.5,0.4,1.7,0.4,1.7-1.2c0-1.5,0-3,0-4.6c0-16.2,0-32.3,0-48.5c0-2.7,0-2.6-2.6-2.5
		c-8.1,0.3-16.3,0.7-24.4,0.9c-11.2,0.4-22.4,0.7-33.6,1c-7.2,0.2-14.4,0.3-21.6,0.5c-12.6,0.3-25.1,0.3-37.7,0.5
		c-17.6,0.3-35.2,0.1-52.8,0.1c-12.6,0-25.1-0.2-37.7-0.5c-13.5-0.3-27-0.6-40.5-1c-13.7-0.4-27.3-0.9-41-1.4
		c-6.6-0.2-13.3-0.6-19.9-0.9c-0.4,0-0.8,0-1.2,0c-1.3-0.1-1.7,0.5-1.6,1.7c0,0.4,0,0.8,0,1.2c0,26,0,52,0,78c0,3-0.4,3.1,3,2.4
		c12.5-2.7,25.2-3.6,37.9-2.8c20.3,1.2,39.5,6.7,57.5,16.3c2.3,1.2,1.9,1.4,3.7-0.7c7.8-9,15.6-18,23.4-27c0.6-0.7,1.1-1.3,1.8-2
		c2.6-2.6,5.7-3.2,9-2c3.4,1.2,5.4,4,5.5,7.7c0,0.6,0,1.1,0,1.7c0,116.2,0,232.3,0,348.5c0,5.4-1.6,10.1-5.8,13.7
		c-5.5,4.7-11.8,5.7-18.4,2.9c-6.7-2.9-10.3-8.3-10.3-15.6c-0.1-15.2,0-30.4,0-45.6c0-1,0.5-2.4-0.4-2.9c-0.9-0.4-1.8,0.7-2.7,1.2
		c-16.3,9.8-34,15.9-52.8,18.6c-2.2,0.3-4.5,0.5-6.7,0.7c-3.1,0.3-2.4,0.5-2.5,2.7c0,0.6,0,1.3,0,1.9c0,33.7,0,67.4,0,101
		c0,3.6-1,6.6-3.8,8.9c-1.6,1.3-3.5,1.8-5.4,2.5C587,886.7,586,886.7,585,886.7z"/>
	<path fill="#EBBE62" d="M693.6,622.9c0-57.9,0-115.8,0-173.7c0-0.9,0-1.8,0-2.6c-0.2-2.3-1.4-3.9-3.5-4.7c-2.5-1-4.6-0.4-6.8,2.1
		c-8.1,9.3-16.1,18.6-24.2,27.9c-1.3,1.5-1.3,1.5,0.3,2.5c4.3,2.6,8.5,5.4,12.5,8.5c1.5,1.1,1.8,2.1,1.1,2.9
		c-0.6,0.7-1.4,0.6-2.9-0.6c-7.9-6-16.2-11.1-25.2-15.2c-26.3-12.1-53.7-15.7-82.1-10.7c-21.7,3.8-41.4,12.5-59,25.8
		c-0.4,0.3-0.9,0.7-1.4,0.9c-0.6,0.4-1.3,0.2-1.7-0.3c-0.4-0.5-0.5-1.2-0.1-1.8c0.4-0.5,0.9-0.9,1.4-1.3c4-3,8.2-5.9,12.5-8.5
		c1.6-1,1.6-1,0.4-2.4c-4-4.7-8.1-9.3-12.1-14c-4.2-4.8-8.4-9.7-12.6-14.5c-1.6-1.9-3.7-2.5-6.1-1.6c-2.3,0.9-3.6,2.6-3.7,5.1
		c0,0.9,0,1.8,0,2.6c0,115.5,0,231,0,346.5c0,0.6,0,1.1,0,1.7c0.1,6,3.6,11.2,9.2,13.3c5.5,2.1,11.5,0.7,15.6-3.7
		c2.8-3,3.9-6.5,3.9-10.5c0-15.4-0.1-30.7,0.1-46.1c0-2.8-0.6-4.6-3.1-6c-1.8-1-3.4-2.4-5-3.7c-0.7-0.6-1-1.3-0.4-2.1
		c0.6-0.8,1.4-0.7,2.1-0.2c0.7,0.5,1.4,1.1,2.1,1.6c21.8,16.1,46.3,25.1,73.3,26.9c15.1,1,30-0.5,44.7-4.5
		c16.9-4.6,32.4-12.2,46.5-22.7c0.7-0.5,1.4-1.1,2.2-1.5c0.5-0.3,1.1-0.2,1.5,0.3c0.5,0.5,0.5,1.2,0.1,1.8c-0.3,0.4-0.8,0.8-1.2,1.1
		c-1.9,1.4-3.7,2.8-5.7,4.1c-1,0.7-1.3,1.4-1.3,2.6c0,16.6,0,33.1,0,49.7c0,5.5,2.8,9.6,7.5,12.2c4.8,2.6,9.7,2.4,14.4-0.5
		c4.6-2.9,6.7-7.2,6.7-12.7C693.6,738.9,693.6,680.9,693.6,622.9z"/>
	<path fill="#EDCFE4" d="M716.5,569.9c0,50.4,0,100.8,0,151.2c0,1.1,0,2.3,0.1,3.3c1.1,6.4,6.5,11.3,13.3,11.9
		c6.2,0.5,12.4-3.7,14.5-9.7c0.7-2.1,0.8-4.2,0.8-6.4c0-13.9,0-27.8,0-41.8c0-1.8,0-3.7,0-5.5c0-1.2-0.3-1.9-1.3-2.6
		c-1.9-1.2-3.7-2.6-5.5-3.9c-0.3-0.2-0.6-0.5-1-0.7c-0.8-0.6-1.5-1.3-0.8-2.4c0.5-0.8,1.3-0.8,2.5,0c0.3,0.2,0.6,0.5,1,0.7
		c20.4,15.3,43.3,24.3,68.8,27c13.6,1.4,27.1,0.8,40.6-1.8c20.8-4.1,39.7-12.6,56.6-25.4c0.5-0.4,1-0.8,1.6-1.1
		c0.6-0.3,1.1,0,1.5,0.4c0.4,0.5,0.5,1,0.2,1.6c-0.3,0.5-0.7,0.8-1.2,1.2c-1.9,1.4-3.7,2.8-5.6,4.1c-1.1,0.7-1.6,1.6-1.6,2.9
		c0.1,2.2,0,4.5,0,6.7c0,14.1,0,28.2,0,42.2c0,10.2,10,17.1,19.4,13.5c5.4-2,9.3-7.3,9.3-14.3c0-100.8,0-201.6,0-302.4
		c0-0.6,0-1.3,0-1.9c-0.3-2.3-1.4-4-3.6-4.9c-2.4-1-4.6-0.4-6.6,2c-8.1,9.4-16.2,18.7-24.3,28.1c-1.3,1.5-1.2,1.5,0.5,2.6
		c4.2,2.5,8.2,5.3,12.1,8.2c0.4,0.3,0.9,0.7,1.3,1.1c0.6,0.6,0.7,1.3,0.2,1.9c-0.5,0.6-1.1,0.6-1.7,0.4c-0.7-0.4-1.3-0.9-2-1.3
		c-21.7-16.2-46.1-25.3-73.1-27.2c-14-1-28,0.1-41.7,3.5c-18.5,4.5-35.4,12.5-50.6,23.9c-0.6,0.4-1.1,0.9-1.8,1.2
		c-0.6,0.2-1.3,0.2-1.7-0.5c-0.4-0.6-0.3-1.2,0.2-1.7c0.5-0.5,1.1-0.9,1.7-1.4c3.8-2.8,7.7-5.5,11.7-7.9c2.3-1.4,2.2-1.2,0.6-3
		c-7.2-8.3-14.3-16.6-21.5-24.8c-1-1.1-1.9-2.3-3-3.4c-1.7-1.8-3.8-2.4-6.1-1.4c-2.3,0.9-3.6,2.6-3.6,5.2c0,0.7,0,1.4,0,2.2
		C716.5,469.4,716.5,519.6,716.5,569.9z"/>
	<path fill="#EBBE62" d="M523.1,426.1c0,13.4,0,26.9,0,40.3c0,0.6,0,1.3,0,1.9c0,0.6,0.3,0.9,0.9,0.7c0.5-0.2,1-0.5,1.5-0.7
		c7.5-3.6,15.2-6.6,23.3-8.8c0.7-0.2,1.4-0.4,2.1-0.6c0.7-0.2,1-0.7,1-1.4c0-0.6,0-1.3,0-1.9c0-18.3,0-36.6,0-54.9
		c0-8.3,0-16.6,0-25c0-1.9,0-1.9-1.8-2c-1.2-0.1-2.4,0-3.6-0.2c-1.2-0.1-1.9,0.4-2.4,1.4c-1.9,3.5-4.7,6-8.3,7.6
		c-3.6,1.6-7.4,2-11.3,1c-1.1-0.3-1.4,0.1-1.4,1.1c0,0.6,0,1.3,0,1.9C523.1,399.7,523.1,412.9,523.1,426.1z"/>
	<path fill="#EDCFE4" d="M815.1,748.5c0,16.8,0,33.6,0,50.4c0,0.7,0,1.4,0,2.2c0.2,3.8,3.2,6.8,6.9,7.1c3.8,0.3,7.1-2.2,8-5.9
		c0.3-1.1,0.3-2.2,0.3-3.3c0-33.7,0-67.5,0-101.2c0-0.5,0-1,0-1.4c0.1-1.3-0.5-1.6-1.7-1.6c-3.9,0-7.8,0-11.7,0
		c-1.2,0-1.8,0.3-1.7,1.6c0.1,0.6,0,1.3,0,1.9C815.1,714.9,815.1,731.7,815.1,748.5z"/>
	<path fill="#EBBE62" d="M594.2,824.1c0-16.9,0-33.9,0-50.8c0-2.8,0.7-3.2-3.1-3c-2.9,0.2-5.9,0-8.9,0c-3.7-0.1-3.1-0.1-3.1,3
		c0,33.9,0,67.8,0,101.7c0,0.6,0,1.1,0,1.7c0.3,5.6,6.4,8.9,11.2,6.1c2.7-1.6,3.8-4.1,3.8-7.2C594.2,858.3,594.2,841.2,594.2,824.1z
		"/>
	<path fill="#EDCFE4" d="M872.1,403.8c0,9.1,0,18.2,0,27.3c0,1.2,0.1,2,1.5,2.6c5.6,2.1,11.1,4.6,16.3,7.5c1,0.6,1.5,0.3,2.2-0.5
		c2.7-3.2,5.5-6.4,8.3-9.6c0.7-0.8,0.8-1.7,0.8-2.7c0-13.2,0-26.4,0-39.6c0-0.6,0-1.1,0-1.7c0-0.6-0.4-0.8-1-0.7
		c-0.5,0.1-0.9,0.3-1.4,0.4c-8.2,1.7-15.8-2.6-19-9.3c-0.5-1.1-0.5-2.6-1.5-3.2c-1.1-0.7-2.5,0.1-3.8-0.1c-0.4,0-0.8,0.1-1.2,0.1
		c-0.9,0-1.3,0.4-1.3,1.3c0,0.6,0,1.1,0,1.7C872.1,386.3,872.1,395,872.1,403.8z"/>
	<path fill="#EBBE62" d="M546.1,364.8C546.1,364.8,546.2,364.8,546.1,364.8c0,1.5-0.1,3-0.2,4.5c0,0.5,0,1,0.6,1.1
		c1.7,0.2,3.5,0.7,4.9,0c1-0.5,0.3-2.2,0.4-3.4c0-0.2,0-0.5,0-0.7c0-8.2-5.9-14.5-14.2-14.8c-4.7-0.2-9.4-0.1-14.1,0
		c-3.8,0.1-6.5,2.1-8,5.6c-0.8,1.7-1.1,3.7-1.4,5.5c-0.5,2.8-0.3,5.7,0.6,8.5c2.3,6.7,9.1,10.8,16.2,9.7c6.9-1.1,12.1-7.1,12.2-14.2
		c0-2.2,0-4.3,0-6.5c0-1,0.2-1.8,1.3-1.9c0.9-0.1,1.5,0.6,1.5,2C546.1,361.8,546.1,363.3,546.1,364.8z"/>
	<path fill="#EDCFE4" d="M894.7,355.5c-2.4,0-4.3,0-6.2,0c-3.5,0-6.8,0.6-9.8,2.6c-3.7,2.4-6.2,5.6-6.5,10.1c-0.3,4.3,0,3.5,3.1,3.3
		c0.6,0,1.3-0.1,1.9-0.2c0.8,0,1.1-0.5,1.1-1.2c0-0.6,0-1.3,0-1.9c0-1.5,0-3,0-4.6c0-0.7,0.4-1.2,1.1-1.3c0.8-0.1,1.4,0.3,1.6,1.1
		c0.2,0.5,0.1,1.1,0.1,1.7c0,1.9,0,3.8,0,5.8c0.1,7.4,6.4,13.6,13.9,13.7c7.2,0.1,13.6-5.8,14-13c0.2-2.8,0.1-5.6,0-8.4
		c-0.2-4.1-2.7-6.8-6.8-7.3C899.6,355.3,896.9,355.6,894.7,355.5z"/>
	<path fill="#E86AA0" d="M982.3,344.1c0.1,1.2,0.1,2.3,0.2,3.3c0.1,0.9,0.3,1.7,0.5,2.6c2.3,9.6,10.6,15.5,20.1,14
		c5.4-0.8,9.4-3.8,12.2-8.4c0.2-0.3,0.3-0.7,0.2-0.9c-0.2-0.5-0.7-0.3-1-0.2c-2.2,0.5-4.3,0.3-6.4-0.1c-5.8-1.1-10.2-4.3-13-9.6
		c-0.3-0.6-0.9-1.4-0.4-2c0.7-1,0.3-1.5-0.5-2c-0.7-0.4-0.8-1.2-0.6-1.9c0.2-0.5,0.6-0.7,1.1-0.8c0.6-0.1,1.1,0.2,1.6,0.5
		c1.2,0.8,2.4,1.2,3.8,1.3c4,0.2,7.7-2.7,8.2-6.8c0.6-3.8-2.1-7.5-6.2-8.4c-4.6-1-8.7,0.2-12.3,3.1
		C984.5,332,982.5,337.7,982.3,344.1z"/>
	<path fill="#ACDCF6" d="M659.9,93.3c2.6,0.8,5.3,0.8,8,1.3c26.6,5,48.2,26.7,53.1,53.3c0.1,0.4,0.2,0.8,0.3,1.2
		c0.3,1.2-0.2,3.1,0.9,3.5c1,0.4,2.2-1.1,3.3-1.7c25.1-13.7,55.5,1.1,60.4,28.7c0.4,2.2,0.5,4.4,0.6,6.7c0.1,1.7,0.1,1.7,1.6,1
		c3.1-1.5,6.3-2.1,9.8-2c11.3,0.2,20.6,9.4,20.6,20.7c0,1.9-0.1,3.8-0.6,5.7c-0.2,0.6-0.3,1.1-0.8,1.4c-0.9,0.7-2.2,0.1-2.2-1.1
		c0-0.6,0.1-1.3,0.3-1.9c1.5-7.4-1.6-14.8-7.9-18.9c-6.2-4.1-14.1-3.9-20.3,0.3c-0.3,0.2-0.5,0.4-0.8,0.6c-0.7,0.5-1.4,0.9-2.2,0.4
		c-0.8-0.5-0.7-1.2-0.6-1.9c0.3-4.8,0-9.6-1.3-14.2c-4.9-17.1-20.8-27.6-36.4-27.5c-8.5,0.1-16,2.5-22.8,7.5
		c-0.2,0.1-0.4,0.3-0.6,0.4c-2,1.4-2.9,0.9-3.2-1.6c-1.3-13.7-6.2-25.9-15.2-36.3c-10.6-12.2-23.9-19.6-39.9-21.9
		c-33.2-4.7-64.3,16.9-71.3,49.2c-5.5,25,2,46.2,21,63.4c0.4,0.4,0.9,0.7,1.3,1.1c0.8,0.7,1.1,1.5,0.4,2.3c-0.7,0.8-1.6,0.6-2.4,0
		c-0.3-0.2-0.5-0.4-0.7-0.6c-13.4-11.3-21.6-25.6-23.7-43.1c-2.7-22.1,3.9-41.3,19.8-57c10.1-10,22.4-16,36.5-18.2
		c1.7-0.3,3.5-0.1,5.1-0.9C653.2,93.3,656.6,93.3,659.9,93.3z"/>
	<path fill="#ACDCF6" d="M1136.6,542.6c-0.4,0.3-0.4,0.8-0.5,1.3c-0.1,0.9-0.7,1.2-1.5,1.1c-0.8-0.1-1.3-0.7-1.3-1.5
		c0-0.5,0.2-0.9,0.3-1.4c0.5-3.9-0.8-7.1-4.1-9.3c-3.2-2.2-6.6-2.3-10-0.4c-0.9,0.5-1.8,1.6-3,0.9c-1.2-0.7-0.6-2-0.6-3.1
		c-0.1-8.2-3.6-14.6-10.8-18.5c-7-3.8-14.1-3.3-20.9,0.9c-0.1,0.1-0.3,0.2-0.4,0.3c-2.8,1.9-3.3,1.6-3.8-1.8
		c-1.7-13-8.5-22.5-20.4-27.9c-22.1-10-46.3,5-48.9,27.8c-0.1,1.3-0.3,2.5-0.3,3.8c0,0.9-0.4,1.5-1.4,1.7c-0.9,0.1-1.5-0.6-1.6-1.7
		c-0.1-3.9,0.6-7.6,1.7-11.3c4.8-15.2,19.7-27.3,38.6-26.3c16.2,0.9,30.9,13.2,34.5,29.3c0.2,1,0,2.4,0.9,2.8c0.8,0.4,1.7-0.6,2.6-1
		c14.7-6.6,31.4,3,33,19.1c0.2,1.7,0.2,1.7,2,1.2c5.9-1.5,11.6,0.9,14.5,6.1c0.6,1.1,0.5,2.5,1.3,3.5
		C1136.6,539.7,1136.6,541.1,1136.6,542.6z"/>
	<path fill="#7DA4EC" d="M263.4,526.2c0.7-0.4,0.8-1.1,1.1-1.8c3.5-8.2,9.7-12.6,18.6-13.4c2.6-0.2,5.1,0.3,7.6,1
		c1.6,0.5,1.6,0.5,2-1.2c1.3-5.6,4.3-9.9,9.1-13c4.9-3.1,10.2-4,15.9-2.9c0.5,0.1,0.9,0.2,1.4,0.4c0.7,0.4,0.8,1,0.6,1.7
		c-0.2,0.6-0.7,0.9-1.3,0.9c-0.6,0-1.1-0.1-1.7-0.2c-10.7-1.9-20.2,5.2-21.5,16c-0.1,0.5,0,1-0.1,1.4c-0.3,1-0.9,1.4-2,1.1
		c-0.5-0.1-0.9-0.4-1.3-0.6c-9.8-4.4-20.8,0.1-24.6,10.2c-0.1,0.2-0.2,0.4-0.3,0.7c-0.7,1.8-0.9,1.9-2.8,1.3
		c-0.2-0.1-0.5-0.1-0.7-0.1C263.4,527.2,263.4,526.7,263.4,526.2z"/>
	<path fill="#ACDCF6" d="M375.1,635c-24.6,0-44.5,17.4-48,40.8c-0.3,2-0.4,4-0.4,6c0,0.6,0,1.1-0.4,1.6c-0.6,0.8-1.6,0.9-2.3,0.2
		c-0.6-0.6-1-1.5-1.5-2.1c-5.9-7.7-13.8-11-23.2-9c-9.5,2-15.4,8.2-17.7,17.8c-0.3,1.3-0.4,2.7-0.5,4c0,0.6-0.1,1.1-0.5,1.5
		c-0.5,0.4-1,0.5-1.6,0.3c-0.7-0.3-0.9-0.9-0.9-1.5c0.1-2.3,0.3-4.6,0.9-6.9c5.3-18.5,28.1-25,42.4-12.1c0.7,0.6,1.3,2,2.1,1.6
		c0.7-0.3,0.5-1.7,0.6-2.6c3.6-19.6,14.7-33.2,33.4-39.8c29.2-10.4,60.7,8.1,66.4,38.6c0.5,2.7,0.7,5.4,0.7,8.1
		c0,1.8-0.4,2.5-1.4,2.5c-1,0-1.5-0.8-1.5-2.6c0-3.5-0.5-7-1.4-10.4c-4.6-18.4-19.8-32.4-38.5-35.5C379.4,635.2,376.8,635,375.1,635
		z"/>
	<path fill="#151D38" d="M424.8,275.7c0,1,0.1,1.9,0,2.9c-0.1,0.8-0.5,1.4-1.4,1.4c-0.8,0-1.3-0.5-1.5-1.3c-0.1-0.5-0.1-1-0.1-1.4
		c-0.4-21.4-16.1-41.3-39.1-45.6c-24.9-4.6-49.6,11.8-55,36.6c-0.6,3-1.1,6-1.1,9c0,0.6,0,1.1-0.2,1.7c-0.4,1.2-1.6,1.4-2.5,0.6
		c-0.4-0.4-0.7-0.9-1-1.4c-5.5-8.1-14.9-11.8-24.3-9.7c-9.1,2.1-16.1,9.7-17.5,19.2c-0.1,0.8-0.1,1.6-0.2,2.4
		c-0.1,1.6-0.6,2.3-1.7,2.1c-1.3-0.2-1.4-1.1-1.3-2.1c0.1-2,0.3-4,0.8-5.9c5.1-19.1,28.9-25.7,43.1-11.9c0.2,0.2,0.4,0.5,0.7,0.7
		c0.2,0.2,0.5,0.5,0.8,0.5c0.6,0,0.4-0.6,0.4-0.9c1-7.3,3.2-14.2,7.2-20.4c9.4-14.5,22.6-22.7,40-23.9c24.4-1.7,46.6,14.7,52.3,38.4
		C424.2,269.5,424.7,272.6,424.8,275.7z"/>
	<path fill="#151D38" d="M972.2,240.7c-15,0.3-30.8-11.8-30.9-31c-0.1-17.1,14-31,31-31c17.1,0,31,13.9,31,31
		C1003.4,227.9,988.3,241.1,972.2,240.7z"/>
	<path fill="#E5384A" d="M944.3,209.8c0,15.4,12.7,28,28.2,27.9c15.3,0,27.7-12.7,27.8-28.1c0.1-13.6-10.6-27.9-27.9-27.9
		C956,181.7,944.5,194.8,944.3,209.8z"/>
	<path fill="#151D38" d="M580.8,290.9c0-5.1,0-10.2,0-15.4c0-0.6,0-1.1,0-1.7c0-0.7,0.2-1.3,0.9-1.5c0.7-0.2,1.3-0.1,1.7,0.5
		c0.5,0.6,0.9,1.1,1.3,1.7c6.8,9,13.6,18,20.4,27c0.3,0.4,0.6,0.8,0.9,1.1c0.2,0.2,0.4,0.6,0.8,0.3c0.1-0.1,0.2-0.4,0.2-0.6
		c0-0.6,0-1.1,0-1.7c0-8.4,0-16.8,0-25.2c0-0.6,0-1.3,0-1.9c0-0.7,0.4-1.2,1.2-1.3c0.8-0.1,1.4,0.3,1.6,1.1c0.1,0.5,0.1,1.1,0.1,1.7
		c0,10.6,0,21.3,0,31.9c0,0.4,0,0.8,0,1.2c0,0.7-0.3,1.2-1,1.5c-0.7,0.2-1.3-0.1-1.7-0.6c-0.4-0.4-0.7-0.9-1-1.3
		c-6.7-8.9-13.5-17.9-20.2-26.8c-0.4-0.5-0.8-1-1.2-1.5c-0.1-0.2-0.4-0.4-0.6-0.4c-0.4,0-0.4,0.4-0.4,0.7c0,0.6,0,1.3,0,1.9
		c0,8.2,0,16.3,0,24.5c0,0.7,0,1.4-0.1,2.2c-0.1,0.8-0.5,1.4-1.3,1.4c-1,0-1.4-0.6-1.5-1.5c0-0.6,0-1.1,0-1.7
		C580.8,301.3,580.8,296.1,580.8,290.9z"/>
	<path fill="#151D38" d="M717.6,291c0,5.1,0,10.2,0,15.4c0,0.5,0,1,0,1.4c0,0.7,0,1.5-0.9,1.8c-0.9,0.3-1.5-0.2-2-0.9
		c-2.5-3.3-5-6.6-7.5-10c-4.5-6-9.1-12-13.6-18c-0.4-0.5-0.8-1-1.2-1.5c-0.1-0.2-0.4-0.3-0.6-0.3c-0.3,0-0.3,0.3-0.3,0.5
		c0,0.6,0,1.3,0,1.9c0,8.4,0,16.8,0,25.2c0,0.7,0,1.5-0.1,2.1c-0.2,0.7-0.7,1-1.5,1c-0.6,0-1.1-0.4-1.2-1c-0.1-0.6-0.2-1.3-0.2-1.9
		c0-10.6,0-21.1,0-31.7c0-1-0.3-2.2,1-2.7c1.4-0.5,1.9,0.7,2.6,1.6c6.7,8.9,13.5,17.9,20.2,26.8c0.1,0.1,0.2,0.3,0.3,0.4
		c0.6,0.5,0.8,1.9,1.7,1.6c0.6-0.2,0.3-1.4,0.3-2.2c0-8.4,0-16.8,0-25.2c0-0.7,0-1.4,0.2-2.1c0.2-0.7,0.7-1,1.4-1
		c0.8,0,1.2,0.5,1.2,1.2c0,0.6,0,1.1,0,1.7C717.6,280.5,717.6,285.8,717.6,291z"/>
	<path fill="#151D38" d="M857.8,290.8c0-5,0-10.1,0-15.1c0-0.6,0-1.1,0-1.7c0.1-1.1,0.6-1.8,1.8-1.8c5.4,0,10.9-0.1,16.3,0.1
		c4.8,0.2,8.5,4.5,8.7,9.5c0.2,4.9-3.3,9.3-8.1,10.1c-2.6,0.5-2.6,0.5-1.4,2.8c2.2,3.9,4.4,7.8,6.5,11.7c1,1.8,0.9,2.6-0.1,3.1
		c-0.9,0.4-1.6,0-2.5-1.7c-2.6-4.7-5.3-9.3-7.8-14c-0.7-1.3-1.5-1.9-3-1.8c-1.8,0.1-3.7,0-5.5,0c-2.1,0-2.2,0-2.2,2.1
		c0,4.2,0,8.3,0,12.5c0,0.5,0,1,0,1.4c0,0.8-0.3,1.4-1.2,1.5c-1,0.1-1.5-0.5-1.6-1.4c-0.1-0.6-0.1-1.3-0.1-1.9
		C857.8,301.2,857.8,296,857.8,290.8z M868.8,289.2c2.1,0,4.2,0.1,6.2,0c3.7-0.1,6.6-3.1,6.7-6.8c0.1-3.8-2.8-7.1-6.5-7.2
		c-4.3-0.1-8.6,0-13-0.1c-1.2,0-1.6,0.4-1.5,1.6c0,3.7,0,7.4,0,11c0,1.2,0.5,1.5,1.6,1.5C864.5,289.2,866.6,289.2,868.8,289.2z"/>
	<path fill="#151D38" d="M634.5,309.8c-9.3,0-17-7-17.9-16.1c-0.9-9.7,5.2-18.1,14.6-19.7c5.6-1,10.6,0.3,15,4
		c0.1,0.1,0.3,0.2,0.4,0.3c1.2,1.1,1.4,1.9,0.7,2.6c-0.6,0.7-1.4,0.6-2.7-0.5c-8.2-7.1-19.8-3.8-23.7,4.7c-2.6,5.6-2.1,11,1.7,15.8
		c3.8,4.8,8.8,6.8,14.9,5.6c6.1-1.3,9.9-5.1,11.7-11.1c0.1-0.3,0.1-0.6,0.2-0.9c0.2-0.9-0.1-1.4-1.1-1.4c-1,0-2.1,0-3.1,0
		c-3,0-6.1,0-9.1,0c-0.6,0-1.3,0-1.9-0.1c-0.6-0.1-1-0.5-1-1.2c-0.1-0.6,0.2-1.1,0.8-1.4c0.7-0.4,1.4-0.3,2.1-0.3
		c4.6,0,9.1,0,13.7,0c2.6,0,3.1,0.5,2.9,3.1C651.8,302.6,643.9,309.8,634.5,309.8z"/>
	<path fill="#151D38" d="M891.8,290.8c0-5.3,0-10.6,0-15.8c0-2.6,0.2-2.7,2.7-2.7c7.2,0,14.4,0,21.6,0c0.5,0,1,0,1.4,0
		c0.8,0.1,1.1,0.5,1.2,1.3c0,0.7-0.3,1.3-1,1.4c-0.7,0.1-1.4,0.1-2.1,0.1c-6.2,0-12.5,0-18.7,0c-2.2,0-2.2,0-2.2,2.3
		c0,3.4,0,6.7,0,10.1c0,2,0,2,2,2c5.1,0,10.2,0,15.3,0c0.6,0,1.3,0,1.9,0.1c0.7,0.1,1.1,0.7,1.1,1.3c0,0.7-0.4,1.2-1.1,1.4
		c-0.6,0.1-1.3,0.1-1.9,0.1c-5.1,0-10.2,0-15.3,0c-2,0-2,0-2,2c0,3.5,0,7,0,10.6c0,1.8,0,1.9,1.9,1.9c6.3,0,12.6,0,18.9,0
		c0.6,0,1.3,0,1.9,0c0.9,0,1.3,0.5,1.3,1.4c0,0.8-0.5,1.3-1.3,1.4c-0.5,0-1,0-1.4,0c-7.1,0-14.2,0-21.3,0c-2.7,0-2.8-0.2-2.8-2.9
		C891.8,301.5,891.8,296.2,891.8,290.8z"/>
	<path fill="#151D38" d="M822.6,291c0-5.4,0-10.7,0-16.1c0-2.6,0.1-2.6,2.7-2.7c7.1,0,14.2,0,21.4,0c0.5,0,1,0,1.4,0
		c0.8,0,1.3,0.5,1.4,1.4c0,0.9-0.5,1.3-1.3,1.4c-0.6,0.1-1.3,0.1-1.9,0.1c-6.2,0-12.3,0-18.5,0c-2.3,0-2.3,0-2.3,2.2
		c0,3.4,0,6.9,0,10.3c0,1.8,0.1,1.9,1.9,1.9c5.1,0,10.2,0,15.4,0c0.6,0,1.3,0,1.9,0.1c0.7,0.1,1.1,0.7,1,1.4c0,0.7-0.4,1.2-1.1,1.3
		c-0.6,0.1-1.3,0.1-1.9,0.1c-5,0-10.1,0-15.1,0c-2,0-2,0-2,2c0,3.5,0,7,0,10.6c0,1.9,0,1.9,2.1,1.9c6.3,0,12.6,0,19,0
		c0.6,0,1.3,0,1.9,0.1c0.7,0.1,1.1,0.6,1.1,1.4c0,0.7-0.4,1.2-1.1,1.4c-0.5,0.1-1,0.1-1.4,0.1c-7.2,0-14.4,0-21.6,0
		c-2.6,0-2.8-0.2-2.8-2.7C822.6,301.7,822.6,296.4,822.6,291z"/>
	<path fill="#151D38" d="M503.1,290.9c0-5.4,0-10.7,0-16.1c0-1.9,0.4-2.5,1.4-2.5c1.1,0,1.5,0.6,1.5,2.5c0,4.4,0,8.8,0,13.2
		c0,2.1,0,2.2,2.1,2.2c6.7,0,13.4,0,20.1,0c1.8,0,1.9,0,1.9-1.9c0-4.3,0-8.6,0-12.9c0-0.6,0-1.3,0.1-1.9c0.1-0.7,0.5-1.1,1.3-1.1
		c0.7,0,1.2,0.4,1.4,1c0.1,0.5,0.1,1.1,0.1,1.7c0,10.6,0,21.3,0,31.9c0,0.6,0.1,1.3-0.2,1.9c-0.3,0.7-0.8,1-1.5,0.9
		c-0.6-0.1-1-0.5-1.1-1.1c-0.1-0.6-0.1-1.3-0.1-1.9c0-3.8,0-7.5,0-11.3c0-2.3,0-2.3-2.2-2.3c-6.6,0-13.3,0-19.9,0c-2,0-2,0-2,2
		c0,3.6,0,7.2,0,10.8c0,0.6,0,1.1,0,1.7c0,1-0.1,2-1.4,2.1c-0.9,0.1-1.4-0.6-1.5-2c0-0.5,0-1,0-1.4
		C503.1,301.1,503.1,296,503.1,290.9z"/>
	<path fill="#151D38" d="M813.9,291c0,5.3,0,10.6,0,15.8c0,2.1-0.4,2.8-1.4,2.9c-1.1,0.1-1.5-0.7-1.5-2.9c0-3.9,0-7.8,0-11.7
		c0-1.8-0.1-1.9-1.9-1.9c-6.7,0-13.4,0-20.1,0c-2,0-2,0-2,2c0,3.8,0,7.5,0,11.3c0,0.6,0,1.3-0.1,1.9c-0.1,0.8-0.5,1.4-1.3,1.4
		c-1,0-1.4-0.6-1.5-1.5c0-0.5,0-1,0-1.4c0-10.6,0-21.1,0-31.7c0-2.2,0.3-2.8,1.4-2.8c1.1,0,1.5,0.6,1.5,2.7c0,4.4,0,8.8,0,13.2
		c0,1.9,0,2,2,2c6.6,0,13.3,0,19.9,0c2.2,0,2.2,0,2.2-2.3c0-4.2,0-8.3,0-12.5c0-0.6,0-1.1,0-1.7c0.1-0.8,0.4-1.4,1.3-1.4
		c1,0,1.5,0.5,1.5,1.5c0.1,0.6,0,1.1,0,1.7C813.9,280.7,813.9,285.8,813.9,291z"/>
	<path fill="#151D38" d="M540.8,309.8c-0.9,0-1.5-0.7-1.3-1.6c0.1-0.6,0.4-1.2,0.7-1.8c4.9-10.1,9.7-20.3,14.6-30.4
		c0.2-0.4,0.4-0.7,0.5-1.1c0.3-0.7,0.7-1.3,1.6-1.3c0.9,0,1.3,0.6,1.6,1.2c1.7,3.5,3.4,7,5.1,10.6c3.2,6.8,6.5,13.5,9.7,20.3
		c0.3,0.7,0.7,1.4,1,2.2c0.3,0.8,0.1,1.5-0.7,1.8c-0.7,0.3-1.4,0.2-1.9-0.6c-0.3-0.5-0.5-1-0.8-1.5c-1.3-2.7-2.6-5.3-3.8-8
		c-0.6-1.5-1.5-1.9-3.1-1.9c-4.7,0.1-9.4,0.1-14.1,0c-1.8-0.1-2.7,0.6-3.4,2.2c-1.2,2.9-2.7,5.6-4,8.4
		C542.1,309.1,541.7,309.9,540.8,309.8z M556.9,294.9c2.1,0,4.2,0,6.2,0c1.3,0,1.5-0.2,1-1.4c-2.2-4.6-4.4-9.2-6.6-13.8
		c-0.1-0.3-0.4-0.5-0.5-0.8c-0.2,0.2-0.5,0.4-0.6,0.7c-2.3,4.7-4.5,9.4-6.7,14c-0.5,1-0.1,1.3,0.9,1.3
		C552.6,294.9,554.8,294.9,556.9,294.9z"/>
	<path fill="#7DA4EC" d="M351,448c2.4,0,5.4,0.6,8.3,1.7c1.1,0.4,1.5,0.2,1.7-1c1.3-7,4.8-12.7,10.7-16.7c6-4.1,12.7-5.5,19.9-4.1
		c0.6,0.1,1.3,0.3,1.8,0.5c0.6,0.3,1,0.8,0.8,1.6c-0.2,0.7-0.6,1.1-1.4,1.1c-0.5,0-0.9-0.1-1.4-0.2c-11.9-2.8-25,4.8-27.5,18.3
		c-0.2,0.9-0.2,1.9-0.3,2.9c-0.2,1.9-1,2.4-2.7,1.6c-2.3-1.1-4.7-1.9-7.2-2.4c-10.5-1.8-21.6,4.7-25.1,15.3
		c-0.2,0.5-0.3,1.1-0.6,1.6c-0.3,0.6-1,0.8-1.6,0.6c-0.7-0.2-1.1-0.7-1-1.4c0.1-0.6,0.3-1.2,0.5-1.8
		C329.4,455.1,339.2,448.1,351,448z"/>
	<path fill="#151D38" d="M972.8,255.3c-12.4-0.2-22.8-4.2-31.6-12.3c-0.4-0.3-0.7-0.7-1-1c-0.6-0.7-0.6-1.5,0.1-2.1
		c0.6-0.6,1.3-0.5,1.9,0c0.4,0.3,0.7,0.7,1.1,1c9.2,8.3,19.9,12.2,32.3,11.4c9.8-0.7,18.4-4.6,25.6-11.2c0.5-0.4,0.9-0.9,1.4-1.3
		c0.7-0.5,1.4-0.2,1.9,0.4c0.5,0.6,0.5,1.2,0,1.8c-0.5,0.6-1.1,1.2-1.7,1.7c-8,7.1-17.3,11.1-28,11.7
		C974.1,255.2,973.2,255.2,972.8,255.3z"/>
	<path fill="#7DA4EC" d="M406.3,475.2c1.9,0,3.7,0.2,5.5,0.7c2,0.5,2,0.5,2.5-1.4c1.4-5.1,4.3-9.1,8.8-11.8
		c4.3-2.6,8.9-3.3,13.8-2.3c0.5,0.1,1,0.2,1.4,0.4c0.7,0.3,0.9,0.9,0.8,1.6c-0.1,0.8-0.7,1.1-1.4,1c-0.6,0-1.1-0.1-1.7-0.2
		c-9-1.6-17.4,4.2-19.1,13.2c-0.1,0.8-0.2,1.6-0.3,2.4c-0.2,1.3-0.9,1.7-2.2,1.3c-0.5-0.1-0.9-0.4-1.3-0.6c-8.9-3.8-18.5,0.3-22,9.4
		c-0.2,0.5-0.3,1.1-0.6,1.6c-0.3,0.6-0.9,0.9-1.6,0.7c-0.7-0.2-1.1-0.7-1-1.4c0.1-0.6,0.3-1.2,0.5-1.8
		C391.1,480.2,398.1,475.2,406.3,475.2z"/>
	<path fill="#151D38" d="M761.6,292.2c0,5,0,9.9,0,14.9c0,1.9-0.4,2.6-1.4,2.6c-1.1,0.1-1.5-0.6-1.5-2.7c0-9.8,0-19.5,0-29.3
		c0-2.7,0.2-2.6-2.6-2.6c-3.3,0-6.6,0-9.8,0c-0.6,0-1.1,0-1.7-0.1c-0.8-0.1-1.3-0.6-1.3-1.4c0-0.9,0.5-1.3,1.4-1.3c0.5,0,1,0,1.4,0
		c9.4,0,18.7,0,28.1,0c0.5,0,1,0,1.4,0c0.8,0.1,1.4,0.5,1.4,1.3c0,0.8-0.5,1.3-1.3,1.4c-0.6,0.1-1.1,0.1-1.7,0.1c-3.3,0-6.6,0-9.8,0
		c-2.7,0-2.6-0.1-2.6,2.7C761.6,282.6,761.6,287.4,761.6,292.2z"/>
	<path fill="#151D38" d="M972.5,248.3c-5.1-0.2-9.4-0.9-13.6-2.5c-0.5-0.2-1-0.4-1.5-0.7c-0.7-0.4-1-1-0.7-1.8
		c0.3-0.8,1-1.1,1.7-0.9c0.6,0.1,1.2,0.4,1.8,0.6c17.2,6.2,35.9-1.4,44-17.8c0.3-0.6,0.6-1.3,1-1.9c0.5-0.7,1.2-0.8,1.9-0.4
		c0.7,0.3,0.9,1,0.7,1.6c-0.1,0.5-0.4,1.1-0.6,1.6c-6.4,12.7-16.6,20.1-30.8,21.9C974.8,248.1,973.3,248.2,972.5,248.3z"/>
	<path fill="#151D38" d="M991,169.3c-0.2,0.8-0.6,1.3-1.4,1.4c-0.7,0-1.2-0.3-1.8-0.5c-16.6-5.8-31.4-2.9-44.5,8.7
		c-0.4,0.4-0.8,0.8-1.3,1.1c-0.6,0.3-1.2,0.2-1.7-0.3c-0.5-0.5-0.5-1.2-0.1-1.8c0.4-0.5,0.8-1,1.3-1.4c10.4-9.4,22.6-13.4,36.6-11.8
		c3.9,0.4,7.7,1.4,11.3,2.9C990.1,167.9,990.9,168.3,991,169.3z"/>
	<path fill="#151D38" d="M1014.8,209.7c-0.2-11.2-4-20.8-11.5-28.9c-0.4-0.4-0.8-0.8-1.1-1.3c-0.4-0.7-0.4-1.4,0.2-2
		c0.6-0.5,1.2-0.5,1.8-0.1c0.5,0.3,0.8,0.7,1.2,1.2c7.4,8,11.5,17.4,12.2,28.2c0.4,6.6-0.6,12.9-2.8,19.1c-0.2,0.6-0.5,1.2-0.8,1.7
		c-0.5,0.7-1.2,0.8-1.9,0.5c-0.7-0.3-0.9-0.9-0.8-1.6c0.1-0.6,0.4-1.2,0.7-1.8C1014,219.9,1014.8,214.8,1014.8,209.7z"/>
	<path fill="#151D38" d="M1010.7,208.1c0,0.6,0.1,1.3,0,1.9c-0.1,0.8-0.7,1.3-1.5,1.3c-0.8,0-1.3-0.6-1.3-1.4
		c-0.2-2.1-0.2-4.3-0.7-6.4c-3.2-14.7-12.2-24.1-26.7-28.1c-1.7-0.5-2.4-1.1-2.2-2c0.2-1,1.1-1.4,2.8-0.9
		c15.2,4,24.7,13.7,28.7,28.8C1010.4,203.4,1010.6,205.7,1010.7,208.1z"/>
	<path fill="#151D38" d="M926.9,209.1c0.1-5.1,1-10.6,3.1-15.9c0.7-1.7,1.3-2.2,2.3-1.9c1,0.3,1.2,1.2,0.5,3.1
		c-3.9,10.3-3.9,20.6,0,30.9c0.1,0.1,0.1,0.3,0.2,0.4c0.5,1.5,0.3,2.3-0.7,2.6c-1,0.3-1.6-0.1-2.2-1.6
		C927.9,221.2,926.9,215.5,926.9,209.1z"/>
	<path fill="#7DA4EC" d="M350.7,509.4c-4.2,0-7.7,2.7-8.6,6.5c-0.1,0.3-0.1,0.6-0.2,0.9c-0.5,2.3-0.8,2.6-3,1.7
		c-1.4-0.5-2.9-0.8-4.4-0.6c-3.1,0.5-5.3,2.1-6.6,4.9c-0.2,0.5-0.4,1.1-0.7,1.5c-0.4,0.6-0.9,0.9-1.6,0.6c-0.7-0.3-1-0.8-1-1.5
		c0-0.5,0.2-0.9,0.4-1.4c1.8-4.8,7-7.8,12-7.1c2,0.3,2,0.3,2.8-1.5c2.1-4.8,6.6-7.4,11.7-6.9c0.6,0.1,1.1,0.2,1.6,0.3
		c0.9,0.3,1.3,0.9,1,1.9c-0.2,0.9-0.9,1-1.7,0.9C351.8,509.6,351.1,509.5,350.7,509.4z"/>
	<path fill="#7DA4EC" d="M304.3,441.7c-4.8-0.4-8.5,2.5-9.3,7.3c-0.4,2.3-0.9,2.7-3,1.7c-4.7-2.1-9.7,0.5-11.3,4.6
		c-0.1,0.4-0.3,0.8-0.5,1.1c-0.4,0.7-1,0.8-1.6,0.6c-0.7-0.2-1-0.8-0.9-1.5c0.1-0.9,0.4-1.7,0.8-2.5c2.1-4.2,6.9-6.6,11.6-6
		c1.9,0.3,1.9,0.3,2.7-1.5c2.1-4.9,6.9-7.6,12.2-6.9c0.4,0.1,0.8,0.1,1.2,0.2c0.8,0.3,1.2,0.8,1.1,1.6c-0.1,0.8-0.7,1.2-1.6,1.1
		C305.3,441.8,304.8,441.8,304.3,441.7z"/>
	<path fill="#151D38" d="M680.1,291c0,5.3,0,10.5,0,15.8c0,0.6,0,1.1-0.1,1.7c-0.1,0.7-0.6,1.1-1.3,1.2c-0.7,0.1-1.2-0.4-1.4-1
		c-0.1-0.5-0.1-1.1-0.1-1.7c0-10.7,0-21.4,0-32.1c0-1.9,0.3-2.5,1.4-2.6c1.1-0.1,1.5,0.5,1.5,2.7C680.1,280.3,680.1,285.7,680.1,291
		z"/>
	<path fill="#151D38" d="M966.3,173.6c0,0.5-0.1,1.1-0.8,1.3c-0.5,0.2-1.1,0.3-1.6,0.5c-8.3,2.1-15,6.6-20.1,13.4
		c-0.3,0.4-0.5,0.8-0.8,1.2c-0.6,0.7-1.4,0.9-2.1,0.3c-0.7-0.5-0.8-1.2-0.4-1.9c0.2-0.4,0.4-0.7,0.6-1c5.7-7.7,13.1-12.8,22.4-15
		c0.5-0.1,0.9-0.3,1.4-0.2C965.8,172.2,966.3,172.8,966.3,173.6z"/>
	<path fill="#151D38" d="M938.3,222.7c1,0,1.4,0.7,1.7,1.4c0.7,1.6,1.6,3.2,2.5,4.6c1.1,1.8,2.4,3.4,3.8,4.9
		c0.4,0.5,0.9,0.9,1.2,1.5c0.4,0.6,0.2,1.3-0.3,1.7c-0.5,0.5-1.1,0.5-1.8,0.2c-0.3-0.2-0.5-0.4-0.7-0.6c-3.3-3.3-5.8-7-7.6-11.3
		C936.6,223.8,937.1,222.7,938.3,222.7z"/>
	<path fill="#151D38" d="M934.1,208c-0.1-1.8,0.3-3.5,0.5-5.2c0.2-1.4,1-2.2,2-1.9c1.1,0.4,1.3,1.2,1,2.3c-0.4,2-0.7,3.9-0.6,5.9
		c0,0.4,0,0.8-0.2,1.2c-0.3,0.6-0.8,1-1.5,0.9c-0.6-0.1-1.1-0.4-1.2-1.1C934,209.5,934.1,208.7,934.1,208z"/>
	<path fill="#151D38" d="M592.8,543.3c0,7.7,0,15.4,0,23c0,0.5,0,1,0,1.4c0,1.9,0,1.9,2.1,2c0.5,0,1,0,1.4,0c5.3,0,10.6,0,15.8,0
		c0.6,0,1.1,0,1.7,0c1.6,0.1,2,0.4,2,2c0,3.5,0.1,7-0.3,10.5c-0.5,3.7-0.8,7.5-1.1,11.2c-0.2,2.2-0.2,2.2,1.9,2.7
		c5.2,1.1,9,3.9,11.6,8.5c7.5,13,15.1,26,22.6,39c0.3,0.5,0.6,1,0.8,1.5c0.3,0.7,0.2,1.5-0.6,1.9c-0.7,0.4-1.4,0.2-1.9-0.5
		c-0.4-0.6-0.8-1.2-1.1-1.8c-7.4-12.7-14.8-25.4-22.1-38.2c-2.3-4-5.4-6.7-10-7.5c-5.8-1.1-10.6,0.8-14.2,5.5
		c-3.5,4.7-4,9.8-1.3,15.1c1.5,2.8,3.2,5.6,4.8,8.3c6,10.4,12.1,20.9,18.1,31.3c0.4,0.6,0.7,1.3,1,1.9c0.2,0.6,0.1,1.3-0.6,1.6
		c-0.6,0.3-1.3,0.3-1.7-0.3c-0.4-0.5-0.7-1.1-1-1.6c-3.1-5.4-6.3-10.8-9.4-16.2c-0.3-0.5-0.6-1-0.9-1.4c-0.1-0.2-0.3-0.4-0.6-0.3
		c-0.3,0.1-0.3,0.3-0.3,0.6c-0.1,1.1-0.3,2.2-0.4,3.3c-0.5,5.2-1,10.5-1.5,15.8c-0.2,2.4-0.4,2.6-3,2.6c-12.1,0-24.2,0-36.2,0
		c-2.4,0-2.7-0.3-3-2.7c-1.6-16.1-3.2-32.1-4.7-48.2c-1.1-11.5-2.3-23.1-3.3-34.6c-0.2-2.6-0.1-5.3-0.1-7.9c0-1.7,0.4-2.1,2.2-2.1
		c2.6-0.1,5.1,0,7.7,0c3.8,0,7.5,0,11.3,0c2.4,0,2.4,0,2.4-2.6c0-9.8,0-19.5,0-29.3c0-6.1,0-12.2,0-18.2c0-0.6,0-1.1,0-1.7
		c0-0.6-0.3-0.9-0.9-0.5c-0.4,0.3-0.8,0.5-1.2,0.8c-10.3,6.7-24.1,3.3-30-7.5c-0.3-0.6-0.6-1.1-0.8-1.7c-0.3-0.8,0.1-1.4,0.8-1.8
		c0.7-0.3,1.3-0.1,1.7,0.5c0.4,0.6,0.7,1.3,1.1,1.9c4,6.8,11.8,10.4,19.4,8.8c7.5-1.5,13.3-7.8,14.3-15.3c0.2-1.3,0-2.3-1-3.2
		c-1.5-1.4-3-2.9-4.4-4.4c-0.3-0.3-0.7-0.7-1-1c-0.5-0.5-1-1.1-0.7-1.9c0.3-0.8,1-1,1.8-1c0.4,0,0.8,0,1.2,0c3.9,0,7.8,0,11.8,0
		c0.3,0,0.6,0,1,0c0.7,0,1.5,0,1.8,0.8c0.4,0.9-0.1,1.5-0.7,2.1c-1.3,1.3-2.5,2.8-3.9,3.9c-2.7,2-2.9,4.4-1.8,7.4
		c2.5,7.1,7.4,11.6,14.9,12.6c7.8,1.1,13.9-2.1,18.1-8.6c0.4-0.6,0.7-1.3,1-1.9c0.5-0.8,1.1-1.2,2-0.7c0.8,0.4,0.9,1.1,0.6,1.9
		c-0.3,0.8-0.7,1.6-1.2,2.3c-5.9,9.8-18.8,13.1-28.7,7.3c-0.5-0.3-0.9-0.6-1.4-0.9c-0.4-0.3-0.8-0.8-1.2-0.6c-0.7,0.2-0.4,1-0.4,1.5
		C592.7,527,592.8,535.1,592.8,543.3z"/>
	<path fill="#FFFFFF" d="M589.7,513l-0.1,0.1L589.7,513c-1.2-0.7-1.5-2-2.1-3c-0.2-0.3-0.4-0.9-0.7-0.8c-0.5,0.2-0.8,0.8-0.7,1.4
		C586.1,511.4,588.6,513,589.7,513z"/>
	<path fill="#FFF3A2" d="M586.6,580.4c-7.8,0-15.5,0-23.3,0c-3.1,0-3-0.4-2.7,3c0.8,8.3,1.6,16.5,2.4,24.8
		c1.7,17.4,3.4,34.8,5.2,52.2c0.2,1.9,0.2,1.9,2.2,1.9c10.8,0,21.6,0,32.4,0c1.9,0,1.9,0,2.1-2c0.7-6.8,1.3-13.5,2.1-20.3
		c0.2-1.6,0-2.9-0.9-4.3c-2.8-4.7-5.6-9.5-8.3-14.3c-2.8-5-3-10.2-0.7-15.4c2.4-5.3,6.5-8.6,12.2-9.8c1.1-0.2,2.1-0.4,2.2-2
		c0.2-3.7,0.7-7.3,1-11c0.2-2.9,0.2-2.9-2.6-2.9C602.1,580.4,594.4,580.4,586.6,580.4z"/>
	<path fill="#FFFFFF" d="M586.6,577.6c7.7,0,15.4,0,23,0c3.6,0,3.6-0.1,3.3-3.6c-0.1-0.9-0.4-1.3-1.3-1.3c-0.6,0-1.3,0-1.9,0
		c-15.4,0-30.9,0-46.3,0c-3.6,0-3.6,0.1-3.3,3.6c0.1,0.9,0.4,1.3,1.3,1.3c0.6,0,1.1,0,1.7,0C570.9,577.6,578.7,577.6,586.6,577.6z"
		/>
	<path fill="#E5384A" d="M589.9,520.9c-0.2-1.1,0.4-2.3-0.6-3.2c-1.4-1.3-2.9-2.6-4.3-3.8c-0.8-0.7-1.2-0.3-1.2,0.5
		c-0.2,2.6-0.4,5.2,2.4,6.7c0.4,0.2,0.7,0.7,1.1,0.9c0.7,0.5,1.4,1.9,2.2,1.5C590.4,523.1,589.7,521.8,589.9,520.9z"/>
	<path fill="#E5384A" d="M589.9,539.2c-0.1-0.8,0.3-1.9-0.6-2.8c-1.5-1.3-3-2.6-4.5-3.9c-0.5-0.4-0.9-0.4-1,0.3
		c-0.1,2.1-0.4,4.1,1.8,5.5c1.1,0.7,2,1.8,3,2.7c0.3,0.3,0.6,0.7,1,0.3c0.2-0.1,0.2-0.6,0.2-0.9
		C589.9,540.1,589.9,539.7,589.9,539.2z"/>
	<path fill="#E5384A" d="M589.8,556.7c0.6-1.8-0.4-2.9-1.7-3.8c-0.5-0.4-0.9-0.9-1.5-1.2c-0.9-0.6-1.7-2.2-2.6-1.5
		c-0.9,0.7-0.3,2.4-0.2,3.6c0.1,0.6,0.6,0.9,1,1.3c0.9,0.9,1.9,1.7,2.8,2.5c0.6,0.5,1.1,1.6,1.8,1.3
		C590.3,558.5,589.7,557.4,589.8,556.7z"/>
	<path fill="#FFFFFF" d="M589.9,530.3c-0.1-0.7,0.3-1.7-0.5-2.4c-1.5-1.4-3.1-2.8-4.7-4.1c-0.5-0.4-0.9-0.3-0.9,0.4
		c-0.2,1.9-0.2,3.8,1.8,5.1c1.1,0.7,1.9,1.7,2.9,2.5c0.3,0.3,0.7,0.8,1.2,0.5c0.2-0.2,0.2-0.7,0.2-1.1
		C589.9,530.9,589.9,530.6,589.9,530.3z"/>
	<path fill="#FFFFFF" d="M583.8,560.8c0.1,0.6-0.3,1.6,0.3,2.2c1.6,1.5,3.3,3,5.1,4.4c0.3,0.2,0.7,0.1,0.7-0.3
		c0-1.4,0.6-2.9-0.7-4.1c-1.4-1.3-2.8-2.6-4.2-3.9c-0.2-0.2-0.4-0.5-0.8-0.3c-0.3,0.2-0.3,0.5-0.3,0.9
		C583.8,559.9,583.8,560.3,583.8,560.8z"/>
	<path fill="#FFFFFF" d="M589.9,548.2c-0.1-0.7,0.3-1.6-0.3-2.2c-1.6-1.6-3.3-3-4.9-4.6c-0.3-0.3-0.6-0.2-0.8,0.1
		c-0.5,0.9,0,3.8,0.7,4.5c1.3,1.2,2.7,2.3,4,3.4c0.3,0.2,0.6,0.7,1,0.4c0.4-0.2,0.2-0.7,0.2-1.1
		C589.9,548.6,589.9,548.4,589.9,548.2z"/>
	<path fill="#E5384A" d="M585.4,569.8c0.2,0,0.6-0.1,1-0.2c0.1,0,0.2-0.3,0.2-0.4c-0.5-0.8-1.3-1.4-2.1-1.9c-0.2-0.1-0.4,0-0.5,0.3
		C583.4,568.7,584,569.7,585.4,569.8z"/>
	<path fill="#151D38" d="M514.4,512.5c-4.6,0-7.9-3.4-8-8c-0.1-4.2,3.6-8.3,8.3-8.1c4.5,0.2,8,3.6,7.9,8.1
		C522.4,509.1,519,512.5,514.4,512.5z"/>
	<path fill="#151D38" d="M658.1,496.4c4.2-0.4,8.2,3.6,8.1,7.9c-0.1,4.6-3.4,8.1-8,8.1c-4.6,0-8.3-3.6-8.3-8.1
		C650,500,653.6,496.4,658.1,496.4z"/>
	<path fill="#151D38" d="M505.5,552.2c-0.6,0-1.1-0.1-1.4-0.7c-0.3-0.6-0.2-1.1,0.2-1.5c0.4-0.4,0.9-0.7,1.4-0.9
		c5.1-2.9,10.3-5.8,15.5-8.6c0.5-0.3,1-0.5,1.5-0.7c0.7-0.2,1.3,0.1,1.6,0.7c0.3,0.7,0.2,1.3-0.4,1.7c-0.4,0.3-0.8,0.5-1.2,0.8
		c-5.1,2.9-10.3,5.7-15.5,8.6C506.7,551.8,506.2,552.2,505.5,552.2z"/>
	<path fill="#151D38" d="M667,550.9c-0.1,0.8-0.8,1.4-1.7,1.2c-0.6-0.1-1.2-0.5-1.7-0.8c-5.1-2.8-10.2-5.6-15.3-8.5
		c-1.7-0.9-2.1-1.8-1.5-2.7c0.5-0.8,1.4-0.8,3,0.1c5.2,2.9,10.4,5.8,15.7,8.7C666.2,549.5,667,549.8,667,550.9z"/>
	<path fill="#151D38" d="M517.1,532.9c0.6,0,1.1,0.2,1.3,0.8c0.3,0.7,0,1.3-0.5,1.7c-0.4,0.3-0.9,0.4-1.3,0.6c-5.5,2-11.1,4-16.6,6
		c-1.7,0.6-2.5,0.5-2.9-0.5c-0.4-1,0.1-1.7,2-2.3c5.4-1.9,10.8-3.9,16.2-5.8C515.9,533.2,516.5,532.9,517.1,532.9z"/>
	<path fill="#151D38" d="M517.1,523.9c0.9,0,1.6,0.2,1.7,1.2c0.1,1-0.4,1.5-1.3,1.6c-3,0.5-5.9,1.1-8.9,1.7
		c-3.4,0.6-6.7,1.2-10.1,1.8c-1.5,0.3-2.2-0.2-2.2-1.3c0-1.2,0.9-1.4,1.8-1.5c2.5-0.5,5-0.9,7.5-1.4c3.6-0.6,7.2-1.3,10.8-1.9
		C516.6,524,516.8,524,517.1,523.9z"/>
	<path fill="#151D38" d="M653.8,523.9c2.9,0.5,5.6,1,8.4,1.5c3.4,0.6,6.9,1.2,10.3,1.9c0.1,0,0.2,0,0.2,0c1.5,0.3,2.2,0.9,2,1.9
		c-0.2,0.9-0.9,1.3-2.5,1c-6-1-11.9-2.1-17.9-3.2c-0.3-0.1-0.6-0.2-0.9-0.2c-0.9-0.2-1.4-0.7-1.3-1.7
		C652.3,524.1,653.1,523.9,653.8,523.9z"/>
	<path fill="#151D38" d="M654.3,533c0.1,0,0.5,0.1,1,0.3c5.6,2,11.3,4,16.9,6c0.4,0.1,0.8,0.3,1.1,0.5c0.7,0.5,0.8,1.2,0.5,1.9
		c-0.3,0.7-0.9,0.9-1.6,0.7c-0.5-0.1-0.9-0.3-1.4-0.4c-5.4-1.9-10.8-3.9-16.3-5.8c-0.5-0.2-1.1-0.4-1.5-0.7c-0.5-0.4-0.8-1-0.5-1.7
		C652.8,533.2,653.3,532.9,654.3,533z"/>
	<path fill="#151D38" d="M606.7,495.5c1.1,0,1.9,0.8,1.9,1.9c0,1-0.7,1.8-1.7,1.9c-1,0.1-2-0.8-2.1-1.8
		C604.8,496.5,605.7,495.6,606.7,495.5z"/>
	<path fill="#151D38" d="M561.3,507c-1.1,0-2-1-1.9-2c0.1-0.9,1-1.8,1.9-1.8c1.1,0,1.9,0.8,1.9,2C563,506.3,562.3,507,561.3,507z"/>
	<path fill="#151D38" d="M603.1,505.1c0,1-0.9,2-2,2c-1,0-1.8-0.8-1.8-1.8c0-1.1,0.8-2,2-2C602.2,503.2,603.1,504.1,603.1,505.1z"/>
	<path fill="#151D38" d="M574.4,505c0,1.1-0.7,2-1.9,2c-1.1,0-1.9-0.9-1.9-1.9c0-1,0.8-1.8,1.8-1.9
		C573.5,503.1,574.4,503.9,574.4,505z"/>
	<path fill="#151D38" d="M612.4,503.2c1.1,0,1.9,0.9,1.9,2c0,1.1-1,1.9-2,1.8c-1-0.1-1.7-0.9-1.8-1.9
		C610.5,504.1,611.3,503.2,612.4,503.2z"/>
	<path fill="#151D38" d="M567,499.3c-1.1,0-2-0.8-2-1.9c0-1.1,0.9-2,1.9-1.9c1,0,1.8,0.7,1.8,1.7C568.8,498.4,568.1,499.3,567,499.3
		z"/>
	<path fill="#151D38" d="M786.1,575.9c0,7.4,0,14.7,0,22.1c0,8.3-5.5,15.3-13.5,17c-8.2,1.8-16.4-2.2-19.9-9.7
		c-1.1-2.3-1.5-4.7-1.5-7.2c0-15,0-30.1,0-45.1c0-0.6,0-1.1,0.1-1.7c0.2-0.7,0.7-1.1,1.4-1c0.7,0,1.2,0.5,1.2,1.2
		c0.1,0.7,0.1,1.4,0.1,2.2c0,14.6,0,29.1,0,43.7c0,6.7,3.5,11.9,9.4,14.2c9.4,3.7,19.7-3.3,19.8-13.4c0.1-9.5,0-19,0-28.5
		c0-5.3,0-10.6,0-15.8c0-0.5,0-1,0-1.4c0.1-1.4,0.5-2.1,1.5-2c1.3,0.1,1.4,1.1,1.4,2.1C786.1,560.2,786.1,568.1,786.1,575.9z"/>
	<path fill="#151D38" d="M822.7,461.9c1.9,0,3.8,0,5.8,0c1.1,0,2.4-0.5,3,0.8c0.6,1.5-0.8,2.1-1.6,2.9c-1.4,1.5-2.9,3-4.4,4.4
		c-1.1,1-1.3,2-1.1,3.4c1.1,7.5,7,13.7,14.7,15.2c7.4,1.4,15.1-2.1,19-8.8c0.4-0.6,0.6-1.3,1-1.9c0.5-0.7,1.2-0.9,1.9-0.5
		c0.7,0.4,1,1.1,0.6,1.8c-0.4,0.9-0.8,1.7-1.3,2.6c-8.4,13.4-28.1,13.2-36.1-0.4c-1.4-2.5-1.4-2.5-3,0.1
		c-8.1,13.8-28.5,13.6-36.4-0.2c-0.4-0.6-0.7-1.3-0.9-1.9c-0.3-0.8-0.2-1.6,0.7-2c0.8-0.3,1.4,0,1.8,0.7c0.4,0.6,0.7,1.3,1,1.9
		c3.9,6.6,11.6,10.1,18.8,8.7c7.8-1.5,13.7-7.6,14.8-15.3c0.2-1.3-0.1-2.3-1.1-3.2c-1.5-1.4-3-2.9-4.4-4.4c-0.3-0.3-0.7-0.7-1-1
		c-0.6-0.5-0.9-1.2-0.6-1.9c0.3-0.9,1.1-0.9,1.8-0.9c1.7,0,3.4,0,5,0C821.5,461.9,822.1,461.9,822.7,461.9z"/>
	<path fill="#151D38" d="M823,554.6c7.8,0.2,15,2.4,21.4,6.9c0.5,0.4,1,0.8,1.4,1.3c0.4,0.6,0.4,1.2-0.1,1.7c-0.4,0.5-1,0.6-1.5,0.3
		c-0.6-0.3-1.1-0.7-1.6-1c-12-8.3-27-8.4-39.1-0.2c-0.5,0.4-1,0.7-1.6,1.1c-0.7,0.5-1.4,0.5-1.9-0.2c-0.6-0.7-0.5-1.5,0.2-2.1
		c0.5-0.4,1-0.8,1.5-1.2C808.1,556.8,815.2,554.7,823,554.6z"/>
	<path fill="#151D38" d="M893.9,482.6c-3.6,0-6.6-2.3-7.6-5.8c-0.2-0.7-0.2-1.4-0.3-2.1c0-0.8,0.4-1.4,1.2-1.5
		c0.8-0.1,1.4,0.3,1.6,1.2c0.1,0.5,0.1,1,0.2,1.4c0.7,2.4,2.7,4,5.1,4c2.4,0,4.4-1.6,5-4c0.1-0.4,0.2-0.8,0.2-1.2
		c0.1-0.9,0.7-1.5,1.6-1.3c0.9,0.2,1.3,0.9,1.2,1.8c-0.1,1.3-0.4,2.5-1.1,3.6C899.6,481.2,897,482.6,893.9,482.6z"/>
	<path fill="#151D38" d="M750.4,482.6c-4.2-0.1-7.5-2.8-8-6.6c-0.1-0.6-0.1-1.3,0-1.9c0-0.5,0.4-0.8,0.9-1c0.6-0.2,1.1,0.1,1.5,0.6
		c0.4,0.5,0.3,1.2,0.5,1.8c0.5,2.4,2.5,4.1,4.9,4.1c2.5,0.1,4.6-1.7,5.2-4.1c0.1-0.5,0.1-1,0.2-1.4c0.3-0.8,0.8-1.2,1.7-1
		c0.7,0.1,1,0.7,1.1,1.4c0.1,2.5-0.9,4.5-2.7,6.1C754.1,482,752.2,482.8,750.4,482.6z"/>
	<path fill="#151D38" d="M741.3,522.3c-0.5-0.1-0.9-0.3-1.1-0.7c-0.2-0.6-0.2-1.1,0.2-1.6c0.4-0.4,0.9-0.7,1.4-0.9
		c5.2-2.9,10.4-5.8,15.6-8.7c0.1,0,0.1-0.1,0.2-0.1c1.4-0.7,2.3-0.7,2.7,0.2c0.4,0.8,0,1.6-1.3,2.4c-5.3,3-10.7,6-16.1,9
		C742.3,522,741.9,522.4,741.3,522.3z"/>
	<path fill="#151D38" d="M902.9,521c0,0.8-0.8,1.5-1.6,1.3c-0.5-0.1-1-0.4-1.5-0.7c-5.2-2.9-10.4-5.8-15.7-8.7
		c-0.3-0.2-0.7-0.4-1-0.6c-0.7-0.5-0.7-1.2-0.4-1.9c0.4-0.7,1.1-0.9,1.8-0.5c0.4,0.2,0.7,0.3,1.1,0.5c5.2,2.9,10.4,5.8,15.7,8.7
		C902,519.5,902.9,519.9,902.9,521z"/>
	<path fill="#151D38" d="M733.9,500.4c-0.9,0.1-1.7-0.1-1.8-1.1c-0.2-1.1,0.6-1.6,1.5-1.7c3.4-0.6,6.9-1.3,10.3-1.9
		c2.5-0.5,5-0.9,7.5-1.3c0.6-0.1,1.3-0.2,1.9-0.2c0.7,0,1.2,0.4,1.3,1.1c0.1,0.7-0.2,1.3-0.8,1.5c-0.6,0.2-1.2,0.3-1.9,0.4
		c-5.6,1-11.3,2.1-16.9,3.1C734.7,500.3,734.3,500.3,733.9,500.4z"/>
	<path fill="#151D38" d="M908.4,500.3c-3.9-0.7-7.9-1.4-12-2.1c-2.1-0.4-4.2-0.8-6.3-1.2c-0.3-0.1-0.6-0.1-0.9-0.2
		c-0.7-0.3-1.2-0.8-1-1.7c0.2-0.8,0.8-1.2,1.6-1.1c1,0.1,2.1,0.3,3.1,0.5c5.2,0.9,10.4,1.9,15.5,2.8c0.2,0,0.5,0.1,0.7,0.1
		c1.4,0.3,1.9,0.9,1.7,1.8C910.5,500.1,910,500.4,908.4,500.3z"/>
	<path fill="#151D38" d="M909.9,511.1c0,0.8-0.5,1.2-1.2,1.3c-0.7,0.1-1.3-0.2-1.9-0.4c-5.5-2-11-3.9-16.5-5.9
		c-1.8-0.6-2.2-1.2-1.9-2.2c0.3-1,1.2-1.2,2.9-0.6c5.6,2,11.3,4,16.9,6.1C909.1,509.7,909.9,510,909.9,511.1z"/>
	<path fill="#151D38" d="M734.6,512.4c-0.9,0-1.4-0.2-1.7-0.9c-0.2-0.7,0-1.3,0.6-1.6c0.5-0.3,1-0.5,1.5-0.7
		c5.5-2,10.9-3.9,16.4-5.9c1.7-0.6,2.5-0.4,2.9,0.5c0.3,1-0.2,1.6-1.9,2.2c-5.5,2-11.1,4-16.6,5.9
		C735.4,512.2,734.9,512.3,734.6,512.4z"/>
	<path fill="#151D38" d="M839,475.2c0,1.1-0.9,1.9-2,1.9c-1.1,0-1.9-0.9-1.8-2c0.1-1,0.8-1.7,1.9-1.8
		C838.1,473.3,839,474.1,839,475.2z"/>
	<path fill="#151D38" d="M799.1,475.1c0.1,1.1-0.7,2-1.8,2c-1,0-1.8-0.7-1.9-1.7c-0.1-1.1,0.6-2,1.7-2.1
		C798.1,473.3,799,474,799.1,475.1z"/>
	<path fill="#151D38" d="M802.7,469.4c-1.1-0.1-1.9-1-1.8-2.2c0.1-1,0.9-1.7,2-1.6c1,0.1,1.8,0.9,1.8,1.9
		C804.7,468.6,803.8,469.5,802.7,469.4z"/>
	<path fill="#151D38" d="M842.7,469.4c-1.1,0-1.9-0.9-1.9-2c0-1,0.8-1.8,1.8-1.8c1.1,0,2,0.8,2,1.9
		C844.6,468.5,843.7,469.5,842.7,469.4z"/>
	<path fill="#151D38" d="M850.3,475.1c0,1-0.9,2-1.9,2c-1.1,0-2-0.9-2-1.9c0-1,0.8-1.8,1.8-1.8C849.3,473.3,850.2,474.1,850.3,475.1
		z"/>
	<path fill="#151D38" d="M810.3,475.3c0,1.1-0.7,1.8-1.8,1.9c-1.1,0-2.1-0.9-2-2c0-1.1,1-1.9,2.1-1.8
		C809.6,473.4,810.3,474.2,810.3,475.3z"/>
	<path fill="#151D38" d="M1001.2,333.6c-1.1,0.1-2.2-0.9-2.3-2c-0.1-1.2,0.8-2.2,1.9-2.3c1.3-0.1,2.3,0.7,2.4,2.1
		C1003.3,332.6,1002.4,333.6,1001.2,333.6z"/>
</g>
</svg>
